<?xml version="1.0" encoding="utf-8"?>
<!-- Generator: Adobe Illustrator 16.0.0, SVG Export Plug-In . SVG Version: 6.00 Build 0)  -->
<!DOCTYPE svg PUBLIC "-//W3C//DTD SVG 1.1//EN" "http://www.w3.org/Graphics/SVG/1.1/DTD/svg11.dtd">
<svg version="1.1" id="图层_1" xmlns="http://www.w3.org/2000/svg" xmlns:xlink="http://www.w3.org/1999/xlink" x="0px" y="0px"
	 width="755.193px" height="184.347px" viewBox="0 0 755.193 184.347" enable-background="new 0 0 755.193 184.347"
	 xml:space="preserve">
<g>
	<path fill="#3FA9F5" d="M59.316,89.113c0-9.852-1.267-16.831-3.797-20.935c-2.533-4.105-6.875-6.158-13.033-6.158
		c-1.918,0-3.9,0.103-5.952,0.308c-2.053,0.205-4.038,0.446-5.952,0.718v83.33H0V42.111c2.598-0.683,5.645-1.401,9.134-2.155
		c3.489-0.75,7.184-1.437,11.083-2.052c3.9-0.616,7.902-1.094,12.007-1.437c4.105-0.34,8.14-0.513,12.11-0.513
		c7.799,0,14.126,0.994,18.985,2.976c4.855,1.985,8.857,4.346,12.007,7.081c4.377-3.146,9.406-5.609,15.085-7.389
		c5.676-1.777,10.91-2.668,15.701-2.668c8.621,0,15.702,1.2,21.243,3.592c5.542,2.396,9.955,5.782,13.238,10.16
		c3.284,4.38,5.542,9.579,6.773,15.599c1.231,6.022,1.847,12.725,1.847,20.114v60.958h-30.582V89.113
		c0-9.852-1.267-16.831-3.797-20.935c-2.533-4.105-6.875-6.158-13.033-6.158c-1.642,0-3.935,0.411-6.875,1.231
		c-2.944,0.821-5.372,1.847-7.287,3.079c0.956,3.149,1.572,6.465,1.848,9.955c0.272,3.489,0.41,7.22,0.41,11.187v58.905H59.316
		V89.113z"/>
	<path fill="#3FA9F5" d="M215.714,35.543c9.031,0,16.555,1.026,22.577,3.079c6.02,2.052,10.843,4.997,14.47,8.826
		c3.624,3.832,6.189,8.485,7.697,13.957c1.504,5.475,2.257,11.564,2.257,18.267v63.626c-4.38,0.959-10.467,2.088-18.267,3.387
		s-17.241,1.95-28.324,1.95c-6.979,0-13.309-0.616-18.985-1.848c-5.68-1.231-10.57-3.248-14.675-6.055
		c-4.104-2.803-7.254-6.465-9.441-10.98c-2.19-4.516-3.284-10.057-3.284-16.625c0-6.292,1.264-11.628,3.797-16.009
		c2.531-4.378,5.917-7.867,10.16-10.468c4.239-2.598,9.098-4.48,14.572-5.645c5.471-1.161,11.151-1.745,17.036-1.745
		c3.967,0,7.491,0.173,10.57,0.513c3.079,0.343,5.574,0.789,7.492,1.334v-2.874c0-5.198-1.575-9.371-4.721-12.52
		c-3.149-3.146-8.62-4.721-16.42-4.721c-5.202,0-10.333,0.379-15.393,1.129c-5.064,0.754-9.441,1.815-13.136,3.182l-3.9-24.63
		c1.777-0.545,4.002-1.129,6.67-1.745c2.668-0.616,5.574-1.161,8.723-1.642c3.146-0.478,6.465-0.889,9.955-1.231
		C208.633,35.716,212.154,35.543,215.714,35.543z M218.177,125.031c3.008,0,5.882-0.067,8.621-0.205
		c2.735-0.135,4.926-0.34,6.568-0.616v-23.192c-1.231-0.272-3.079-0.546-5.542-0.821c-2.463-0.272-4.721-0.41-6.773-0.41
		c-2.874,0-5.577,0.173-8.107,0.514c-2.534,0.342-4.756,0.994-6.671,1.949c-1.917,0.959-3.421,2.258-4.515,3.899
		c-1.097,1.643-1.642,3.694-1.642,6.157c0,4.792,1.607,8.107,4.823,9.955C208.152,124.107,212.565,125.031,218.177,125.031z"/>
	<path fill="#3FA9F5" d="M355.486,65.509c-2.739-0.683-5.952-1.401-9.647-2.155c-3.694-0.75-7.665-1.128-11.904-1.128
		c-1.917,0-4.208,0.173-6.875,0.513c-2.668,0.343-4.689,0.719-6.055,1.129v82.509h-30.582V44.164
		c5.471-1.915,11.937-3.727,19.396-5.439c7.456-1.709,15.769-2.565,24.938-2.565c1.642,0,3.624,0.103,5.952,0.308
		c2.325,0.206,4.65,0.481,6.978,0.821c2.325,0.343,4.65,0.753,6.979,1.231c2.325,0.481,4.31,1.062,5.952,1.745L355.486,65.509z"/>
	<path fill="#3FA9F5" d="M408.028,124.416c5.609,0,9.576-0.546,11.904-1.643c2.326-1.094,3.49-3.213,3.49-6.362
		c0-2.463-1.508-4.618-4.516-6.466c-3.012-1.847-7.594-3.932-13.752-6.26c-4.791-1.776-9.133-3.624-13.033-5.542
		c-3.9-1.914-7.219-4.207-9.955-6.875c-2.738-2.668-4.857-5.85-6.362-9.545c-1.507-3.694-2.258-8.139-2.258-13.34
		c0-10.125,3.763-18.129,11.29-24.014c7.523-5.882,17.855-8.826,30.992-8.826c6.566,0,12.859,0.583,18.883,1.745
		c6.02,1.164,10.807,2.431,14.367,3.797l-5.338,23.809c-3.559-1.231-7.424-2.325-11.596-3.284
		c-4.176-0.956-8.861-1.437-14.059-1.437c-9.58,0-14.369,2.668-14.369,8.005c0,1.231,0.207,2.328,0.617,3.284
		c0.41,0.959,1.23,1.882,2.463,2.771c1.23,0.892,2.904,1.854,5.027,2.886c2.121,1.036,4.824,2.174,8.107,3.412
		c6.703,2.485,12.244,4.936,16.625,7.347c4.379,2.416,7.832,5.022,10.365,7.819c2.531,2.8,4.311,5.907,5.336,9.319
		c1.027,3.412,1.541,7.373,1.541,11.875c0,10.65-4.004,18.707-12.008,24.168c-8.004,5.458-19.328,8.19-33.969,8.19
		c-9.578,0-17.549-0.82-23.91-2.463c-6.363-1.642-10.776-3.008-13.239-4.104l5.131-24.835c5.198,2.053,10.536,3.662,16.009,4.823
		C397.286,123.834,402.692,124.416,408.028,124.416z"/>
	<path d="M576.943,92.397c0,8.348-1.025,15.941-3.078,22.782c-2.053,6.844-5.064,12.725-9.031,17.651
		c-3.97,4.926-8.896,8.758-14.777,11.493c-5.885,2.735-12.658,4.105-20.319,4.105c-4.243,0-8.21-0.411-11.904-1.231
		c-3.694-0.821-7.255-1.982-10.673-3.489v40.639h-30.582V42.111c2.735-0.821,5.882-1.607,9.441-2.36
		c3.557-0.75,7.286-1.401,11.186-1.95c3.9-0.545,7.867-0.991,11.904-1.334c4.035-0.34,7.902-0.513,11.597-0.513
		c8.894,0,16.83,1.334,23.809,4.002c6.979,2.668,12.86,6.433,17.651,11.289c4.788,4.858,8.447,10.775,10.98,17.754
		C575.676,75.977,576.943,83.776,576.943,92.397z M545.746,93.217c0-9.441-2.123-17-6.362-22.679
		c-4.243-5.677-10.538-8.518-18.883-8.518c-2.739,0-5.27,0.103-7.594,0.308c-2.329,0.205-4.243,0.446-5.747,0.718v55.211
		c1.914,1.231,4.412,2.258,7.491,3.079s6.189,1.231,9.339,1.231C538.492,122.568,545.746,112.787,545.746,93.217z"/>
	<path d="M595.414,92.397c0-7.8,1.264-15.153,3.797-22.064c2.53-6.908,6.189-12.931,10.98-18.062
		c4.788-5.131,10.603-9.201,17.446-12.212c6.84-3.008,14.64-4.515,23.398-4.515c5.746,0,11.013,0.513,15.804,1.539
		c4.788,1.026,9.441,2.499,13.957,4.413l-6.363,24.424c-2.873-1.094-6.022-2.053-9.441-2.874c-3.422-0.821-7.254-1.231-11.493-1.231
		c-9.031,0-15.772,2.806-20.217,8.415c-4.448,5.612-6.671,13.001-6.671,22.167c0,9.717,2.085,17.24,6.26,22.577
		c4.173,5.336,11.459,8.004,21.859,8.004c3.694,0,7.661-0.34,11.904-1.026c4.239-0.683,8.139-1.776,11.698-3.283l4.311,25.04
		c-3.56,1.507-8.005,2.803-13.341,3.899c-5.337,1.094-11.222,1.642-17.651,1.642c-9.852,0-18.338-1.472-25.45-4.412
		c-7.116-2.941-12.966-6.943-17.549-12.007c-4.586-5.061-7.938-11.049-10.058-17.959
		C596.471,107.963,595.414,100.471,595.414,92.397z"/>
	<polygon points="700.215,33.885 700.215,5.888 689.75,5.888 689.75,0 717.283,0 717.283,5.888 707.12,5.888 707.12,33.885 	"/>
	<polygon points="721.394,33.885 721.394,0 732.108,0 738.271,23.296 744.475,0 755.193,0 755.193,33.885 748.649,33.885 
		748.649,6.883 741.344,33.885 735.139,33.885 727.81,6.883 727.81,33.885 	"/>
</g>
</svg>
